<svg width="190" height="19" viewBox="0 0 190 19" fill="none" xmlns="http://www.w3.org/2000/svg">
<path d="M105.578 5.52344L102.094 5.52344L102.094 15L99.75 15L99.75 5.52344L96.3125 5.52344L96.3125 3.625L105.578 3.625L105.578 5.52344ZM118.047 9.57032C118.047 10.6901 117.849 11.6719 117.453 12.5156C117.057 13.3594 116.49 14.0104 115.75 14.4688C115.016 14.9271 114.172 15.1563 113.219 15.1563C112.276 15.1563 111.435 14.9297 110.695 14.4766C109.956 14.0234 109.383 13.3776 108.977 12.5391C108.57 11.6953 108.365 10.7266 108.359 9.63281L108.359 9.07031C108.359 7.95052 108.56 6.96615 108.961 6.11719C109.367 5.26302 109.937 4.60938 110.672 4.15625C111.411 3.69792 112.255 3.46875 113.203 3.46875C114.151 3.46875 114.992 3.69792 115.727 4.15625C116.466 4.60938 117.036 5.26302 117.437 6.11719C117.844 6.96615 118.047 7.94792 118.047 9.0625L118.047 9.57032ZM115.672 9.05469C115.672 7.86198 115.458 6.95573 115.031 6.33594C114.604 5.71615 113.995 5.40625 113.203 5.40625C112.417 5.40625 111.81 5.71354 111.383 6.32813C110.956 6.9375 110.74 7.83334 110.734 9.01563L110.734 9.57032C110.734 10.7318 110.948 11.6328 111.375 12.2734C111.802 12.9141 112.417 13.2344 113.219 13.2344C114.005 13.2344 114.609 12.9271 115.031 12.3125C115.453 11.6927 115.667 10.7917 115.672 9.60938L115.672 9.05469ZM124.094 10.9922L124.094 15L121.75 15L121.75 3.625L126.187 3.62501C127.042 3.62501 127.792 3.78126 128.437 4.09376C129.089 4.40626 129.589 4.85157 129.937 5.42969C130.286 6.00261 130.461 6.65626 130.461 7.39063C130.461 8.50521 130.078 9.38542 129.312 10.0313C128.552 10.6719 127.497 10.9922 126.148 10.9922L124.094 10.9922ZM124.094 9.09375L126.187 9.09376C126.807 9.09376 127.279 8.94792 127.602 8.65626C127.93 8.36459 128.094 7.94792 128.094 7.40626C128.094 6.84896 127.93 6.39844 127.602 6.05469C127.273 5.71094 126.82 5.53386 126.242 5.52344L124.094 5.52344L124.094 9.09375ZM149.312 15L146.969 15L142.406 7.51563L142.406 15L140.062 15L140.062 3.62501L142.406 3.62501L146.977 11.125L146.977 3.62501L149.312 3.62501L149.312 15ZM160.203 10.0703L155.703 10.0703L155.703 13.1172L160.984 13.1172L160.984 15L153.359 15L153.359 3.62501L160.969 3.62501L160.969 5.52345L155.703 5.52345L155.703 8.23439L160.203 8.23439L160.203 10.0703ZM173.219 11.7188L174.75 3.62501L177.086 3.62501L174.562 15L172.203 15L170.352 7.39064L168.5 15L166.141 15L163.617 3.62501L165.953 3.62501L167.492 11.7031L169.367 3.62501L171.352 3.62501L173.219 11.7188ZM186.258 12.0156C186.258 11.5729 186.102 11.2344 185.789 11C185.477 10.7604 184.914 10.5104 184.102 10.25C183.289 9.98439 182.646 9.72397 182.172 9.46877C180.88 8.77085 180.234 7.83074 180.234 6.64845C180.234 6.03387 180.406 5.48699 180.75 5.00783C181.099 4.52345 181.596 4.14585 182.242 3.87502C182.893 3.60418 183.622 3.46877 184.43 3.46877C185.242 3.46877 185.966 3.6172 186.602 3.91408C187.237 4.20575 187.729 4.61981 188.078 5.15627C188.432 5.69272 188.609 6.3021 188.609 6.98439L186.266 6.98439C186.266 6.46356 186.102 6.05991 185.773 5.77345C185.445 5.48179 184.984 5.33595 184.391 5.33595C183.818 5.33595 183.372 5.45835 183.055 5.70314C182.737 5.94272 182.578 6.26043 182.578 6.65627C182.578 7.02606 182.763 7.33595 183.133 7.58595C183.508 7.83595 184.057 8.07033 184.781 8.28908C186.115 8.69012 187.086 9.18752 187.695 9.78127C188.305 10.375 188.609 11.1146 188.609 12C188.609 12.9844 188.237 13.7578 187.492 14.3203C186.747 14.8776 185.745 15.1563 184.484 15.1563C183.609 15.1563 182.812 14.9974 182.094 14.6797C181.375 14.3568 180.826 13.9167 180.445 13.3594C180.07 12.8021 179.883 12.1563 179.883 11.4219L182.234 11.4219C182.234 12.6771 182.984 13.3047 184.484 13.3047C185.042 13.3047 185.477 13.1927 185.789 12.9688C186.102 12.7396 186.258 12.4219 186.258 12.0156Z" fill="#1D2130"/>
<path d="M0 9.5H72" stroke="#1D2130" stroke-width="2"/>
</svg>
